HIERARCHY
ROOT Hips
{
	OFFSET -0.001795 -0.223333 0.028219
	CHANNELS 6 Xposition Yposition Zposition Zrotation Yrotation Xrotation 
	JOINT LeftUpLeg
	{
		OFFSET 0.069520 -0.091406 -0.006815
		CHANNELS 3 Zrotation Yrotation Xrotation
		JOINT LeftLeg
		{
			OFFSET 0.034277 -0.375199 -0.004496
			CHANNELS 3 Zrotation Yrotation Xrotation
			JOINT LeftFoot
			{
				OFFSET -0.013596 -0.397961 -0.043693
				CHANNELS 3 Zrotation Yrotation Xrotation
				JOINT LeftToe
				{
					OFFSET 0.026358 -0.055791 0.119288
					CHANNELS 3 Zrotation Yrotation Xrotation
					End Site
					{
						OFFSET 0.000000 0.000000 0.000000
					}
				}
			}
		}
	}
	JOINT RightUpLeg
	{
		OFFSET -0.067670 -0.090522 -0.004320
		CHANNELS 3 Zrotation Yrotation Xrotation
		JOINT RightLeg
		{
			OFFSET -0.038290 -0.382569 -0.008850
			CHANNELS 3 Zrotation Yrotation Xrotation
			JOINT RightFoot
			{
				OFFSET 0.015774 -0.398415 -0.042312
				CHANNELS 3 Zrotation Yrotation Xrotation
				JOINT RightToe
				{
					OFFSET -0.025372 -0.048144 0.123348
					CHANNELS 3 Zrotation Yrotation Xrotation
					End Site
					{
						OFFSET 0.000000 0.000000 0.000000
					}
				}
			}
		}
	}
	JOINT Spine
	{
		OFFSET -0.002533 0.108963 -0.026696
		CHANNELS 3 Zrotation Yrotation Xrotation
		JOINT Spine1
		{
			OFFSET 0.005487 0.135180 0.001092
			CHANNELS 3 Zrotation Yrotation Xrotation
			JOINT Spine2
			{
				OFFSET 0.001457 0.052922 0.025425
				CHANNELS 3 Zrotation Yrotation Xrotation
				JOINT Neck
				{
					OFFSET -0.002778 0.213870 -0.042857
					CHANNELS 3 Zrotation Yrotation Xrotation
					JOINT Head
					{
						OFFSET 0.005152 0.064970 0.051349
						CHANNELS 3 Zrotation Yrotation Xrotation
						End Site
						{
							OFFSET 0.000000 0.000000 0.000000
						}
					}
				}
				JOINT LeftShoulder
				{
					OFFSET 0.078845 0.121749 -0.034090
					CHANNELS 3 Zrotation Yrotation Xrotation
					JOINT LeftArm
					{
						OFFSET 0.090977 0.030469 -0.008868
						CHANNELS 3 Zrotation Yrotation Xrotation
						JOINT LeftForeArm
						{
							OFFSET 0.259612 -0.012772 -0.027456
							CHANNELS 3 Zrotation Yrotation Xrotation
							JOINT LeftHand
							{
								OFFSET 0.249234 0.008986 -0.001171
								CHANNELS 3 Zrotation Yrotation Xrotation
								End Site
								{
									OFFSET 0.000000 0.000000 0.000000
								}
							}
						}
					}
				}
				JOINT RightShoulder
				{
					OFFSET -0.081759 0.118833 -0.038615
					CHANNELS 3 Zrotation Yrotation Xrotation
					JOINT RightArm
					{
						OFFSET -0.096012 0.032551 -0.009143
						CHANNELS 3 Zrotation Yrotation Xrotation
						JOINT RightForeArm
						{
							OFFSET -0.253742 -0.013329 -0.021401
							CHANNELS 3 Zrotation Yrotation Xrotation
							JOINT RightHand
							{
								OFFSET -0.255298 0.007772 -0.005559
								CHANNELS 3 Zrotation Yrotation Xrotation
								End Site
								{
									OFFSET 0.000000 0.000000 0.000000
								}
							}
						}
					}
				}
			}
		}
	}
}
MOTION
Frames: 10
Frame Time: 0.050000
-0.010068 0.953343 -0.041292 -0.686086 -0.191341 2.669323 5.226732 -0.208034 -2.431344 -0.043477 0.034826 -0.895421 -0.369106 3.522094 10.591838 0.000000 0.000000 0.000000 -4.150881 0.321659 -3.057086 -3.416326 0.445291 1.243271 1.808955 -1.137752 11.104263 0.000000 0.000000 0.000000 3.987182 0.142255 -2.811670 0.337716 -0.041759 -3.962200 -6.991560 9.223875 12.180535 14.162084 -12.796343 1.354737 0.000000 0.000000 0.000000 22.836010 11.379311 2.138440 -1.889640 -37.116614 -2.985027 101.866058 -0.856961 -7.244001 0.000000 0.000000 0.000000 -22.686459 -16.162126 -3.122366 20.489110 27.672761 2.216366 -111.622077 24.141823 -20.948876 0.000000 0.000000 0.000000 
-0.010339 0.953044 -0.044877 -0.946633 -1.400785 2.755422 5.485978 -0.222206 -3.068583 -0.281866 0.030923 0.016241 0.412294 4.794347 10.859363 0.000000 0.000000 0.000000 -3.667177 0.403033 -4.161123 -3.585912 0.528587 2.207526 2.398486 -0.099949 11.019826 0.000000 0.000000 0.000000 3.696891 0.113559 -2.422688 1.065861 -0.366816 -4.093755 -7.267677 7.666368 12.822089 14.083582 -12.512154 0.794950 0.000000 0.000000 0.000000 21.086634 10.567952 1.372441 -3.339886 -37.601566 -2.459434 105.183332 -3.603166 -9.182646 0.000000 0.000000 0.000000 -20.573655 -15.523941 -2.862823 21.507792 29.591013 2.479944 -115.724821 23.282471 -23.759115 0.000000 0.000000 0.000000 
-0.010444 0.952694 -0.048529 -0.830256 -2.518067 3.080046 5.439644 -0.260745 -4.129741 -0.681291 0.040418 1.391117 1.122424 5.753493 10.456338 0.000000 0.000000 0.000000 -3.517041 0.490640 -5.278634 -3.661745 0.595168 3.051813 2.651051 0.655208 10.179022 0.000000 0.000000 0.000000 3.367949 0.078373 -1.978201 1.323983 -0.479869 -4.378470 -7.691363 6.404822 13.212430 13.622371 -11.947146 0.401140 0.000000 0.000000 0.000000 20.705800 8.818287 1.155737 -4.125245 -37.589881 -2.086742 107.286247 -4.701550 -9.481356 0.000000 0.000000 0.000000 -19.006494 -15.241580 -2.672611 21.795931 30.899558 2.539857 -118.588683 22.214661 -25.331676 0.000000 0.000000 0.000000 
-0.010496 0.951809 -0.051781 -0.854933 -3.363979 3.532536 5.351796 -0.286214 -4.748202 -0.739379 0.035232 1.972655 1.735908 6.565882 9.915667 0.000000 0.000000 0.000000 -3.183301 0.605095 -6.683872 -4.135568 0.734167 4.073631 2.959784 1.477042 9.594210 0.000000 0.000000 0.000000 3.116541 0.073614 -1.955526 1.814010 -0.706734 -4.149857 -7.982806 4.593473 13.176481 13.327700 -11.740778 0.653999 0.000000 0.000000 0.000000 19.417339 7.869858 0.643872 -3.037512 -37.694082 -2.090874 109.459265 -5.720566 -9.508873 0.000000 0.000000 0.000000 -17.888158 -14.461963 -2.255275 21.079945 31.829284 2.311180 -120.475794 20.767062 -26.029424 0.000000 0.000000 0.000000 
-0.010764 0.950924 -0.054294 -0.960364 -4.556716 3.948735 5.309429 -0.301496 -5.261324 -0.837847 0.038401 2.583838 2.282806 7.274519 9.428241 0.000000 0.000000 0.000000 -2.902617 0.686719 -7.553435 -4.441903 0.800247 4.418190 3.535098 2.852256 9.010592 0.000000 0.000000 0.000000 3.019696 0.069593 -1.933597 2.218226 -0.890796 -4.133743 -8.222617 3.673261 13.229442 13.219899 -11.676532 0.828706 0.000000 0.000000 0.000000 19.385061 6.650939 0.526471 -2.834906 -37.332677 -1.944720 111.061217 -4.838390 -7.465273 0.000000 0.000000 0.000000 -17.178834 -14.473018 -2.074168 20.683785 32.379144 2.151443 -121.400607 19.267201 -25.480436 0.000000 0.000000 0.000000 
-0.011380 0.949428 -0.055960 -1.331963 -6.069172 4.068511 5.848278 -0.258551 -5.144972 -0.887827 0.045652 2.872881 3.034685 8.371024 9.086367 0.000000 0.000000 0.000000 -2.604129 0.774658 -8.445116 -4.585033 0.879115 5.139749 4.251655 4.348048 8.753767 0.000000 0.000000 0.000000 3.151824 0.058172 -1.763025 2.450039 -1.002525 -4.179001 -8.130770 2.573073 13.391856 13.544471 -11.983486 0.943859 0.000000 0.000000 0.000000 18.658597 6.190728 0.125416 -2.642662 -37.531743 -1.787972 111.833940 -5.330003 -6.862615 0.000000 0.000000 0.000000 -16.585518 -14.105720 -1.750599 20.787755 33.304559 2.095107 -122.108950 18.547814 -26.277179 0.000000 0.000000 0.000000 
-0.012030 0.948008 -0.057105 -1.488983 -7.666694 4.213862 5.957326 -0.228338 -4.999889 -0.984482 0.069087 2.764945 3.777878 9.499139 8.881219 0.000000 0.000000 0.000000 -2.357618 0.866219 -9.324137 -4.817190 0.978681 5.893856 4.889383 6.037144 8.028203 0.000000 0.000000 0.000000 3.214112 0.063574 -1.826549 2.682127 -1.132882 -3.662572 -8.296067 1.943087 13.458246 13.938621 -12.258994 0.785471 0.000000 0.000000 0.000000 18.505796 5.259114 -0.017089 -3.002672 -36.890476 -1.521175 112.828263 -5.281251 -5.868712 0.000000 0.000000 0.000000 -15.787304 -14.039577 -1.623491 20.953684 33.219185 1.957856 -122.927891 18.555066 -27.944219 0.000000 0.000000 0.000000 
-0.012372 0.946200 -0.058166 -1.884812 -9.891123 4.286282 6.151399 -0.165990 -4.357529 -1.323445 0.129563 2.943048 5.105900 11.623898 8.464709 0.000000 0.000000 0.000000 -2.249735 0.952541 -10.102341 -4.665201 1.038695 6.790706 5.790710 8.189873 7.523882 0.000000 0.000000 0.000000 3.609874 0.048524 -1.608608 2.455804 -1.058149 -3.450448 -7.881558 1.550396 13.363040 14.136666 -12.613155 1.595617 0.000000 0.000000 0.000000 18.006017 4.544851 -0.244005 -2.275959 -36.872373 -1.505451 112.399738 -6.728022 -6.692959 0.000000 0.000000 0.000000 -14.943029 -14.118369 -1.522399 21.299223 33.650433 1.919538 -123.806368 20.736765 -33.422981 0.000000 0.000000 0.000000 
-0.012221 0.944942 -0.059328 -2.166546 -11.589730 3.906996 6.056982 -0.106939 -3.445055 -1.407798 0.151600 3.108169 5.851234 12.830147 8.101203 0.000000 0.000000 0.000000 -2.192040 0.974921 -10.247496 -4.968887 1.131809 7.239619 6.530699 10.091757 7.069770 0.000000 0.000000 0.000000 3.964662 0.019466 -1.166263 2.987459 -1.321560 -2.588016 -8.126737 0.428140 12.701968 14.050335 -12.589708 2.289158 0.000000 0.000000 0.000000 18.700078 3.275446 -0.284224 -2.000538 -36.321712 -1.313469 110.242426 -7.972350 -6.747017 0.000000 0.000000 0.000000 -14.469820 -14.253577 -1.312434 21.639936 33.584594 1.840405 -124.477549 23.709405 -40.379768 0.000000 0.000000 0.000000 
-0.011467 0.943980 -0.060472 -2.507823 -13.891712 3.815828 6.296406 -0.037425 -2.827897 -2.015267 0.269047 3.672963 7.670691 15.981364 8.035327 0.000000 0.000000 0.000000 -2.171500 1.069407 -11.078549 -4.686687 1.213912 8.422704 7.601834 12.564489 6.897409 0.000000 0.000000 0.000000 4.683780 -0.026332 -0.603320 2.972590 -1.337410 -1.772334 -7.486941 -0.805366 12.511971 13.465547 -12.380529 4.203208 0.000000 0.000000 0.000000 18.876016 1.283235 -0.357938 -1.106339 -34.296385 -1.196018 109.156194 -9.618318 -7.115152 0.000000 0.000000 0.000000 -13.363661 -15.058536 -1.359530 21.664947 33.479110 1.638890 -127.107344 27.471561 -50.803262 0.000000 0.000000 0.000000 
